<svg width="41" height="41" viewBox="0 0 41 41" fill="none" xmlns="http://www.w3.org/2000/svg">
<rect width="40" height="40" transform="translate(0.421875 0.234375)" fill="#3B5B9B"/>
<g clip-path="url(#clip0_24_368)">
<path d="M26.3149 5.4353V9.85495H23.6865C22.7267 9.85495 22.0794 10.0558 21.7446 10.4576C21.4097 10.8594 21.2423 11.4621 21.2423 12.2657V15.4297H26.1475L25.4946 20.3851H21.2423V33.0916H16.1196V20.3851H11.8506V15.4297H16.1196V11.7802C16.1196 9.70428 16.6999 8.09434 17.8606 6.95037C19.0213 5.8064 20.5671 5.23441 22.4979 5.23441C24.1385 5.23441 25.4109 5.30138 26.3149 5.4353Z" fill="white"/>
</g>
<defs>
<clipPath id="clip0_24_368">
<rect width="17.1562" height="30" fill="white" transform="matrix(1 0 0 -1 11.8438 35.2344)"/>
</clipPath>
</defs>
</svg>
