<svg width="41" height="41" viewBox="0 0 41 41" fill="none" xmlns="http://www.w3.org/2000/svg">
<rect width="40" height="40" transform="translate(0.421875 0.890625)" fill="#3B5B9B"/>
<g clip-path="url(#clip0_24_1041)">
<path d="M26.3147 6.09155V10.5112H23.6864C22.7266 10.5112 22.0793 10.7121 21.7444 11.1139C21.4096 11.5157 21.2422 12.1183 21.2422 12.9219V16.086H26.1473L25.4944 21.0413H21.2422V33.7478H16.1194V21.0413H11.8505V16.086H16.1194V12.4364C16.1194 10.3605 16.6998 8.75059 17.8605 7.60662C19.0212 6.46265 20.567 5.89066 22.4978 5.89066C24.1384 5.89066 25.4107 5.95763 26.3147 6.09155Z" fill="white"/>
</g>
<defs>
<clipPath id="clip0_24_1041">
<rect width="17.1562" height="30" fill="white" transform="matrix(1 0 0 -1 11.8438 35.8906)"/>
</clipPath>
</defs>
</svg>
