<svg width="46" height="46" viewBox="0 0 46 46" fill="none" xmlns="http://www.w3.org/2000/svg">
<g filter="url(#filter0_d_24_708)">
<rect x="3" y="2" width="40" height="40" rx="2" fill="white"/>
<g clip-path="url(#clip0_24_708)">
<path opacity="0.7" d="M27.0263 37.079H22.6842L22.5263 34.7895L22.3684 37.079H18.0263L17.8684 26.9737L17.2369 28.5527C17.125 28.8404 16.9072 29.0743 16.6282 29.2064C16.3493 29.3385 16.0303 29.3589 15.7369 29.2632L14.7895 28.9474C14.4931 28.8428 14.2472 28.6302 14.1008 28.3521C13.9545 28.074 13.9185 27.7509 14 27.4474V27.3685C14.2369 26.658 16.4474 18.5264 16.4474 18.5264C16.5518 18.1088 16.7819 17.7335 17.1067 17.451C17.4315 17.1686 17.8352 16.9928 18.2632 16.9474L18.7369 16.5527C17.9344 15.8049 17.3752 14.8332 17.1319 13.7637C16.8886 12.6941 16.9723 11.5761 17.3724 10.5548C17.7724 9.53345 18.4702 8.65594 19.3752 8.03614C20.2801 7.41634 21.3505 7.08287 22.4474 7.07901C23.165 7.07027 23.8771 7.20549 24.5415 7.47669C25.206 7.7479 25.8093 8.14957 26.3158 8.65796C27.3281 9.69111 27.895 11.08 27.8948 12.5264C27.9013 13.2698 27.7498 14.0061 27.4504 14.6866C27.1509 15.3671 26.7104 15.9763 26.1579 16.4737L26.7105 16.8685C27.1482 16.9115 27.5628 17.0851 27.9007 17.3666C28.2385 17.6482 28.484 18.0247 28.6053 18.4474C28.6053 18.4474 30.8948 27.2895 30.8948 27.3685C30.9904 27.662 30.9701 27.9809 30.8379 28.2599C30.7058 28.5388 30.4719 28.7566 30.1842 28.8685L29.1579 29.1843C28.8642 29.2619 28.5526 29.2332 28.2781 29.1032C28.0035 28.9731 27.7839 28.7502 27.6579 28.4737L27.1053 27.0527L27.0263 37.079ZM24.1842 35.5001H25.5263L25.6842 23.0264L27.1842 22.7895L29.079 27.7632L29.3158 27.6843C29.1579 27.0527 28.6842 25.158 27.1053 19.079C27.0822 18.9695 27.0229 18.871 26.937 18.7994C26.851 18.7278 26.7434 18.6872 26.6316 18.6843H26.1579L25.2895 17.9737H23.7895L23.5527 16.3948C24.3563 16.1647 25.062 15.6769 25.5612 15.0065C26.0605 14.336 26.3256 13.5201 26.3158 12.6843C26.3284 12.1861 26.2422 11.6903 26.0621 11.2256C25.882 10.7609 25.6117 10.3365 25.2667 9.97679C24.9217 9.61713 24.5089 9.32936 24.0521 9.1301C23.5953 8.93084 23.1036 8.82404 22.6053 8.81585H22.4474C21.5162 8.81311 20.6152 9.14636 19.91 9.75443C19.2047 10.3625 18.7424 11.2046 18.6081 12.126C18.4737 13.0475 18.6762 13.9865 19.1784 14.7706C19.6807 15.5548 20.4489 16.1315 21.3421 16.3948L21.1053 17.9737H19.6053L18.8158 18.6843H18.3421C18.2342 18.6994 18.1327 18.7443 18.049 18.8141C17.9653 18.8838 17.9027 18.9756 17.8684 19.079C16.2895 25.0001 15.7369 26.9737 15.5 27.6843L15.7369 27.7632L17.7105 22.7895L19.2105 23.0264L19.3684 35.5001H20.6316L21.1053 28.8685C21.1289 28.5696 21.2636 28.2904 21.4828 28.0859C21.7019 27.8813 21.9897 27.7662 22.2895 27.7632C22.5904 27.7626 22.8802 27.8764 23.1001 28.0817C23.3201 28.287 23.4536 28.5683 23.4737 28.8685L24.1842 35.5001Z" fill="#333333"/>
<path d="M18.5789 17.7369L19.4473 17.0264H25.6052L26.5525 17.7369" fill="#CE592C"/>
<path opacity="0.5" d="M22.5262 17.5789C23.7035 17.5789 24.6578 17.4729 24.6578 17.3421C24.6578 17.2113 23.7035 17.1052 22.5262 17.1052C21.349 17.1052 20.3947 17.2113 20.3947 17.3421C20.3947 17.4729 21.349 17.5789 22.5262 17.5789Z" fill="#CE592C"/>
<path d="M30.1842 27.6052L27.8947 18.6842C27.8102 18.4137 27.6428 18.1766 27.4161 18.0066C27.1894 17.8365 26.9149 17.7422 26.6316 17.7368H18.421C18.1406 17.7611 17.8751 17.8735 17.6624 18.0578C17.4497 18.2421 17.3007 18.489 17.2368 18.7631L14.7894 27.6842C14.7604 27.7895 14.768 27.9016 14.811 28.002C14.8541 28.1024 14.93 28.1852 15.0263 28.2368L15.8947 28.5526C16 28.5817 16.1121 28.5741 16.2125 28.531C16.313 28.488 16.3958 28.4121 16.4473 28.3158L18.5789 23.0263L18.7368 36.2894H21.5789L22.0526 28.9473C22.0494 28.8986 22.0558 28.8497 22.0716 28.8034C22.0873 28.7572 22.112 28.7145 22.1443 28.6778C22.1766 28.6411 22.2158 28.6112 22.2597 28.5897C22.3035 28.5682 22.3512 28.5556 22.4 28.5526H22.4473C22.7631 28.5526 22.7631 28.7105 22.8421 28.9473L23.3158 36.2894H26.1579L26.3158 23.0263L28.2894 28.2368C28.3268 28.3378 28.4024 28.42 28.4999 28.4658C28.5974 28.5116 28.7089 28.5172 28.8105 28.4816L29.7579 28.1658C29.8219 28.1596 29.884 28.1398 29.9397 28.1077C29.9955 28.0755 30.0437 28.0318 30.0811 27.9794C30.1185 27.927 30.1443 27.8672 30.1566 27.804C30.169 27.7408 30.1676 27.6757 30.1526 27.6131L30.1842 27.6052Z" fill="#FDBF2D"/>
<path opacity="0.6" d="M19.4474 17.7368L22.5263 23.0263L25.6053 17.7368" fill="#CF572E"/>
<path d="M22.5263 17.1842C25.0988 17.1842 27.1842 15.0988 27.1842 12.5263C27.1842 9.95382 25.0988 7.86841 22.5263 7.86841C19.9538 7.86841 17.8684 9.95382 17.8684 12.5263C17.8684 15.0988 19.9538 17.1842 22.5263 17.1842Z" fill="#FDBF2D"/>
</g>
</g>
<defs>
<filter id="filter0_d_24_708" x="0" y="0" width="46" height="46" filterUnits="userSpaceOnUse" color-interpolation-filters="sRGB">
<feFlood flood-opacity="0" result="BackgroundImageFix"/>
<feColorMatrix in="SourceAlpha" type="matrix" values="0 0 0 0 0 0 0 0 0 0 0 0 0 0 0 0 0 0 127 0" result="hardAlpha"/>
<feMorphology radius="1" operator="erode" in="SourceAlpha" result="effect1_dropShadow_24_708"/>
<feOffset dy="1"/>
<feGaussianBlur stdDeviation="2"/>
<feComposite in2="hardAlpha" operator="out"/>
<feColorMatrix type="matrix" values="0 0 0 0 0 0 0 0 0 0 0 0 0 0 0 0 0 0 0.3 0"/>
<feBlend mode="normal" in2="BackgroundImageFix" result="effect1_dropShadow_24_708"/>
<feBlend mode="normal" in="SourceGraphic" in2="effect1_dropShadow_24_708" result="shape"/>
</filter>
<clipPath id="clip0_24_708">
<rect width="18.1579" height="30" fill="white" transform="translate(13.921 7)"/>
</clipPath>
</defs>
</svg>
