<svg width="15" height="17" viewBox="0 0 15 17" fill="none" xmlns="http://www.w3.org/2000/svg">
<g clip-path="url(#clip0_24_272)">
<path d="M9.25321 10.9576C9.25321 10.9576 9.44889 10.7619 9.84026 10.3705C10.2316 9.97917 10.4273 9.23289 10.4273 8.1317C10.4273 7.03051 10.0359 6.08854 9.25321 5.3058C8.47047 4.52306 7.52851 4.1317 6.42732 4.1317C5.32613 4.1317 4.38416 4.52306 3.60142 5.3058C2.81869 6.08854 2.42732 7.03051 2.42732 8.1317C2.42732 9.23289 2.81869 10.1749 3.60142 10.9576C4.38416 11.7403 5.32613 12.1317 6.42732 12.1317C7.52851 12.1317 8.47047 11.7403 9.25321 10.9576ZM14.9987 15.5603C14.9987 15.8698 14.8856 16.1376 14.6595 16.3638C14.4333 16.59 14.1654 16.7031 13.8559 16.7031C13.5345 16.7031 13.2666 16.59 13.0523 16.3638L9.98982 13.3103C8.92434 14.0484 7.73684 14.4174 6.42732 14.4174C5.57613 14.4174 4.76214 14.2522 3.98535 13.9219C3.20857 13.5915 2.53892 13.1451 1.97642 12.5826C1.41392 12.0201 0.967494 11.3504 0.637137 10.5737C0.30678 9.79687 0.141602 8.98289 0.141602 8.1317C0.141602 7.28051 0.30678 6.46652 0.637137 5.68973C0.967494 4.91295 1.41392 4.2433 1.97642 3.6808C2.53892 3.1183 3.20857 2.67187 3.98535 2.34152C4.76214 2.01116 5.57613 1.84598 6.42732 1.84598C7.27851 1.84598 8.09249 2.01116 8.86928 2.34152C9.64607 2.67187 10.3157 3.1183 10.8782 3.6808C11.4407 4.2433 11.8871 4.91295 12.2175 5.68973C12.5479 6.46652 12.713 7.28051 12.713 8.1317C12.713 9.44122 12.344 10.6287 11.6059 11.6942L14.6684 14.7567C14.8886 14.9769 14.9987 15.2448 14.9987 15.5603Z" fill="#FF0000"/>
</g>
<defs>
<clipPath id="clip0_24_272">
<rect width="14.8594" height="16" fill="white" transform="matrix(1 0 0 -1 0.140625 16.7031)"/>
</clipPath>
</defs>
</svg>
