<svg width="15" height="17" viewBox="0 0 15 17" fill="none" xmlns="http://www.w3.org/2000/svg">
<g clip-path="url(#clip0_24_942)">
<path d="M9.25345 10.9576C9.25345 10.9576 9.44914 10.7619 9.84051 10.3705C10.2319 9.97917 10.4276 9.23289 10.4276 8.1317C10.4276 7.03051 10.0362 6.08854 9.25345 5.3058C8.47072 4.52306 7.52875 4.1317 6.42756 4.1317C5.32637 4.1317 4.38441 4.52306 3.60167 5.3058C2.81893 6.08854 2.42756 7.03051 2.42756 8.1317C2.42756 9.23289 2.81893 10.1749 3.60167 10.9576C4.38441 11.7403 5.32637 12.1317 6.42756 12.1317C7.52875 12.1317 8.47072 11.7403 9.25345 10.9576ZM14.999 15.5603C14.999 15.8698 14.8859 16.1376 14.6597 16.3638C14.4335 16.59 14.1657 16.7031 13.8561 16.7031C13.5347 16.7031 13.2668 16.59 13.0526 16.3638L9.99006 13.3103C8.92458 14.0484 7.73708 14.4174 6.42756 14.4174C5.57637 14.4174 4.76238 14.2522 3.9856 13.9219C3.20881 13.5915 2.53917 13.1451 1.97667 12.5826C1.41417 12.0201 0.967739 11.3504 0.637381 10.5737C0.307024 9.79687 0.141846 8.98289 0.141846 8.1317C0.141846 7.28051 0.307024 6.46652 0.637381 5.68973C0.967739 4.91295 1.41417 4.2433 1.97667 3.6808C2.53917 3.1183 3.20881 2.67187 3.9856 2.34152C4.76238 2.01116 5.57637 1.84598 6.42756 1.84598C7.27875 1.84598 8.09274 2.01116 8.86952 2.34152C9.64631 2.67187 10.316 3.1183 10.8785 3.6808C11.441 4.2433 11.8874 4.91295 12.2177 5.68973C12.5481 6.46652 12.7133 7.28051 12.7133 8.1317C12.7133 9.44122 12.3442 10.6287 11.6061 11.6942L14.6686 14.7567C14.8889 14.9769 14.999 15.2448 14.999 15.5603Z" fill="#FF0000"/>
</g>
<defs>
<clipPath id="clip0_24_942">
<rect width="14.8594" height="16" fill="white" transform="matrix(1 0 0 -1 0.140625 16.7031)"/>
</clipPath>
</defs>
</svg>
