<svg width="35" height="36" viewBox="0 0 35 36" fill="none" xmlns="http://www.w3.org/2000/svg">
<g clip-path="url(#clip0_24_867)">
<path d="M26.0714 24.2544V15.683C25.8333 15.9509 25.5766 16.1964 25.3013 16.4196C23.3073 17.9524 21.7225 19.2098 20.5469 20.1919C20.1674 20.5119 19.8586 20.7611 19.6205 20.9397C19.3824 21.1183 19.0606 21.2987 18.6551 21.481C18.2496 21.6633 17.8683 21.7544 17.5112 21.7544H17.5H17.4888C17.1317 21.7544 16.7504 21.6633 16.3449 21.481C15.9394 21.2987 15.6176 21.1183 15.3795 20.9397C15.1414 20.7611 14.8326 20.5119 14.4531 20.1919C13.2775 19.2098 11.6927 17.9524 9.69866 16.4196C9.42336 16.1964 9.16667 15.9509 8.92857 15.683V24.2544C8.92857 24.3512 8.96391 24.4349 9.0346 24.5056C9.10528 24.5762 9.18899 24.6116 9.28571 24.6116H25.7143C25.811 24.6116 25.8947 24.5762 25.9654 24.5056C26.0361 24.4349 26.0714 24.3512 26.0714 24.2544ZM26.0714 12.5245C26.0714 12.5097 26.0714 12.4687 26.0714 12.4018C26.0714 12.3348 26.0714 12.2846 26.0714 12.2511C26.0714 12.2176 26.0696 12.1693 26.0658 12.106C26.0621 12.0428 26.051 11.9963 26.0324 11.9665C26.0138 11.9367 25.9933 11.9033 25.971 11.8661C25.9487 11.8289 25.9152 11.8009 25.8705 11.7823C25.8259 11.7637 25.7738 11.7544 25.7143 11.7544H9.28571C9.18899 11.7544 9.10528 11.7898 9.0346 11.8605C8.96391 11.9312 8.92857 12.0149 8.92857 12.1116C8.92857 13.3616 9.47545 14.4181 10.5692 15.2812C12.0052 16.4122 13.497 17.5915 15.0446 18.8192C15.0893 18.8564 15.2195 18.9661 15.4353 19.1484C15.651 19.3307 15.8222 19.4702 15.9487 19.5669C16.0751 19.6637 16.2407 19.7809 16.4453 19.9185C16.6499 20.0562 16.8378 20.1585 17.0089 20.2254C17.1801 20.2924 17.34 20.3259 17.4888 20.3259H17.5H17.5112C17.66 20.3259 17.8199 20.2924 17.9911 20.2254C18.1622 20.1585 18.3501 20.0562 18.5547 19.9185C18.7593 19.7809 18.9249 19.6637 19.0513 19.5669C19.1778 19.4702 19.349 19.3307 19.5647 19.1484C19.7805 18.9661 19.9107 18.8564 19.9554 18.8192C21.503 17.5915 22.9948 16.4122 24.4308 15.2812C24.8326 14.9613 25.2065 14.5316 25.5525 13.9922C25.8984 13.4527 26.0714 12.9635 26.0714 12.5245ZM27.5 12.1116V24.2544C27.5 24.7455 27.3251 25.1659 26.9754 25.5156C26.6257 25.8653 26.2054 26.0402 25.7143 26.0402H9.28571C8.79464 26.0402 8.37426 25.8653 8.02455 25.5156C7.67485 25.1659 7.5 24.7455 7.5 24.2544V12.1116C7.5 11.6205 7.67485 11.2001 8.02455 10.8504C8.37426 10.5007 8.79464 10.3259 9.28571 10.3259H25.7143C26.2054 10.3259 26.6257 10.5007 26.9754 10.8504C27.3251 11.2001 27.5 11.6205 27.5 12.1116Z" fill="#4A4A4A"/>
</g>
<rect x="0.5" y="0.96875" width="34" height="34" rx="17" stroke="black"/>
<defs>
<clipPath id="clip0_24_867">
<rect width="20" height="20" fill="white" transform="matrix(1 0 0 -1 7.5 27.4688)"/>
</clipPath>
</defs>
</svg>
