<svg width="35" height="36" viewBox="0 0 35 36" fill="none" xmlns="http://www.w3.org/2000/svg">
<g clip-path="url(#clip0_24_854)">
<path d="M19.5201 16.6317C19.5201 16.6317 19.6596 16.4922 19.9386 16.2132C20.2176 15.9341 20.3571 15.4003 20.3571 14.6116C20.3571 13.8229 20.0781 13.1495 19.5201 12.5915C18.962 12.0335 18.2887 11.7544 17.5 11.7544C16.7113 11.7544 16.0379 12.0335 15.4799 12.5915C14.9219 13.1495 14.6428 13.8229 14.6428 14.6116C14.6428 15.4003 14.9219 16.0736 15.4799 16.6317C16.0379 17.1897 16.7113 17.4687 17.5 17.4687C18.2887 17.4687 18.962 17.1897 19.5201 16.6317ZM23.2143 14.6116C23.2143 15.4226 23.0915 16.0885 22.846 16.6094L18.7835 25.2478C18.6644 25.4933 18.4877 25.6867 18.2533 25.8281C18.019 25.9695 17.7678 26.0402 17.5 26.0402C17.2321 26.0402 16.981 25.9695 16.7466 25.8281C16.5123 25.6867 16.3393 25.4933 16.2277 25.2478L12.154 16.6094C11.9085 16.0885 11.7857 15.4226 11.7857 14.6116C11.7857 13.0342 12.3437 11.6875 13.4598 10.5714C14.5759 9.45534 15.9226 8.8973 17.5 8.8973C19.0774 8.8973 20.4241 9.45534 21.5402 10.5714C22.6562 11.6875 23.2143 13.0342 23.2143 14.6116Z" fill="#4A4A4A"/>
</g>
<rect x="0.5" y="0.96875" width="34" height="34" rx="17" stroke="black"/>
<defs>
<clipPath id="clip0_24_854">
<rect width="11.4375" height="20" fill="white" transform="matrix(1 0 0 -1 11.7812 27.4688)"/>
</clipPath>
</defs>
</svg>
