<svg width="35" height="36" viewBox="0 0 35 36" fill="none" xmlns="http://www.w3.org/2000/svg">
<g clip-path="url(#clip0_24_861)">
<path d="M25.3571 21.3081C25.3571 21.509 25.3199 21.7712 25.2455 22.0949C25.1711 22.4186 25.093 22.6734 25.0112 22.8594C24.8549 23.2314 24.401 23.6258 23.6495 24.0424C22.9501 24.4219 22.2582 24.6116 21.5737 24.6116C21.3728 24.6116 21.1775 24.5986 20.9877 24.5726C20.798 24.5465 20.5841 24.5 20.346 24.4331C20.1079 24.3661 19.9312 24.3122 19.8158 24.2712C19.7005 24.2303 19.494 24.154 19.1964 24.0424C18.8988 23.9308 18.7165 23.8639 18.6495 23.8415C17.9204 23.5811 17.2693 23.2723 16.6964 22.9152C15.744 22.3274 14.76 21.5257 13.7444 20.5101C12.7288 19.4944 11.9271 18.5104 11.3393 17.5581C10.9821 16.9851 10.6734 16.3341 10.4129 15.6049C10.3906 15.538 10.3237 15.3557 10.212 15.0581C10.1004 14.7604 10.0242 14.554 9.98325 14.4386C9.94233 14.3233 9.88839 14.1466 9.82142 13.9085C9.75446 13.6704 9.70796 13.4565 9.68192 13.2668C9.65587 13.077 9.64285 12.8817 9.64285 12.6808C9.64285 11.9963 9.83258 11.3043 10.212 10.6049C10.6287 9.85345 11.0231 9.39958 11.3951 9.24333C11.5811 9.16148 11.8359 9.08336 12.1596 9.00895C12.4833 8.93455 12.7455 8.89735 12.9464 8.89735C13.0506 8.89735 13.1287 8.90851 13.1808 8.93083C13.3147 8.97547 13.5119 9.25821 13.7723 9.77904C13.8542 9.92041 13.9658 10.1213 14.1071 10.3817C14.2485 10.6421 14.3787 10.8784 14.4978 11.0904C14.6168 11.3025 14.7321 11.5015 14.8437 11.6875C14.8661 11.7173 14.9312 11.8103 15.0391 11.9665C15.1469 12.1228 15.2269 12.2549 15.279 12.3627C15.3311 12.4706 15.3571 12.5767 15.3571 12.6808C15.3571 12.8296 15.2511 13.0157 15.0391 13.2389C14.827 13.4621 14.5963 13.6667 14.3471 13.8527C14.0978 14.0387 13.8672 14.2359 13.6551 14.4442C13.4431 14.6526 13.337 14.8237 13.337 14.9576C13.337 15.0246 13.3557 15.1083 13.3929 15.2087C13.4301 15.3092 13.4617 15.3854 13.4877 15.4375C13.5138 15.4896 13.5658 15.5789 13.644 15.7054C13.7221 15.8319 13.7649 15.9026 13.7723 15.9174C14.3378 16.9368 14.9851 17.811 15.7143 18.5402C16.4434 19.2694 17.3177 19.9167 18.337 20.4822C18.3519 20.4896 18.4226 20.5324 18.5491 20.6105C18.6756 20.6886 18.7649 20.7407 18.817 20.7668C18.869 20.7928 18.9453 20.8244 19.0458 20.8616C19.1462 20.8988 19.2299 20.9174 19.2969 20.9174C19.4308 20.9174 19.6019 20.8114 19.8103 20.5994C20.0186 20.3873 20.2158 20.1566 20.4018 19.9074C20.5878 19.6581 20.7924 19.4275 21.0156 19.2154C21.2388 19.0034 21.4248 18.8973 21.5737 18.8973C21.6778 18.8973 21.7838 18.9234 21.8917 18.9755C21.9996 19.0276 22.1317 19.1075 22.2879 19.2154C22.4442 19.3233 22.5372 19.3884 22.567 19.4107C22.753 19.5223 22.952 19.6377 23.1641 19.7567C23.3761 19.8758 23.6123 20.006 23.8728 20.1473C24.1332 20.2887 24.3341 20.4003 24.4754 20.4822C24.9963 20.7426 25.279 20.9398 25.3237 21.0737C25.346 21.1258 25.3571 21.2039 25.3571 21.3081Z" fill="#4A4A4A"/>
</g>
<rect x="0.5" y="0.96875" width="34" height="34" rx="17" stroke="black"/>
<defs>
<clipPath id="clip0_24_861">
<rect width="15.7188" height="20" fill="white" transform="matrix(1 0 0 -1 9.64062 27.4688)"/>
</clipPath>
</defs>
</svg>
