<svg width="66" height="26" viewBox="0 0 66 26" fill="none" xmlns="http://www.w3.org/2000/svg">
<g opacity="0.3">
<path d="M17.7322 6.57726L18.2175 6.09212L17.7226 5.61685C16.5001 4.4426 14.8522 3.53711 12.5593 3.53711C8.4229 3.53711 4.93628 6.90381 4.93628 11.0644C4.93628 15.225 8.4229 18.5916 12.5593 18.5916C14.7742 18.5916 16.4831 17.8575 17.8249 16.4687C19.2321 15.0585 19.6374 13.1189 19.6374 11.6166C19.6374 11.1476 19.598 10.6973 19.5213 10.314L19.4132 9.77351H11.8869V12.9959H16.2173C16.0628 13.5308 15.8299 13.9181 15.5457 14.2027C14.982 14.7599 14.1271 15.3767 12.5593 15.3767C10.1813 15.3767 8.31327 13.466 8.31327 11.0644C8.31327 8.66285 10.1813 6.75212 12.5593 6.75212C13.8469 6.75212 14.7785 7.25481 15.4794 7.91072L15.9544 8.35518L16.4143 7.89522L17.7322 6.57726Z" fill="black" stroke="black" stroke-width="1.34483"/>
<path d="M24.3622 18.5843C27.1317 18.5843 29.3861 16.4153 29.3861 13.5015C29.3861 10.5715 27.1302 8.4187 24.3622 8.4187C21.5943 8.4187 19.3384 10.5715 19.3384 13.5015C19.3384 16.4153 21.5928 18.5843 24.3622 18.5843ZM24.3622 11.5011C25.2713 11.5011 26.1343 12.2516 26.1343 13.5015C26.1343 14.7392 25.2689 15.5018 24.3622 15.5018C23.4568 15.5018 22.5902 14.7331 22.5902 13.5015C22.5902 12.2577 23.4544 11.5011 24.3622 11.5011Z" fill="black" stroke="black" stroke-width="1.34483"/>
<path d="M34.1217 15.5018H34.1179C33.2125 15.5018 32.3458 14.7331 32.3458 13.5015C32.3458 12.2577 33.2101 11.5011 34.1179 11.5011C35.027 11.5011 35.89 12.2516 35.89 13.5015C35.89 14.7428 35.0221 15.5068 34.1217 15.5018ZM34.1106 18.5843C36.88 18.5843 39.1344 16.4153 39.1344 13.5015C39.1344 10.5715 36.8785 8.4187 34.1106 8.4187C31.3426 8.4187 29.0867 10.5715 29.0867 13.5015C29.0867 16.416 31.3492 18.5843 34.1106 18.5843Z" fill="black" stroke="black" stroke-width="1.34483"/>
<path d="M48.6474 9.35613V8.68375H45.4619V8.7936C44.9688 8.5589 44.384 8.41132 43.7413 8.41132C41.1559 8.41132 38.8425 10.6688 38.8425 13.5162C38.8425 15.4231 39.8861 17.0557 41.3558 17.9216L41.2968 17.9461L39.6108 18.6456L38.9896 18.9032L39.2474 19.5244C39.8058 20.8696 41.2894 22.5455 43.7781 22.5455C45.0427 22.5455 46.2768 22.1739 47.1976 21.282C48.1239 20.3846 48.6474 19.0437 48.6474 17.2786V9.35613ZM42.1748 18.3077C42.6726 18.4874 43.2008 18.5842 43.7413 18.5842C44.3517 18.5842 44.912 18.4527 45.3918 18.2354C45.3133 18.5842 45.1751 18.837 45.0106 19.0138C44.7585 19.2847 44.3649 19.463 43.7781 19.463C42.9606 19.463 42.4153 18.8824 42.1748 18.3077ZM43.9106 11.5011C44.7823 11.5011 45.5944 12.2617 45.5944 13.5236C45.5944 14.7605 44.7914 15.5092 43.9106 15.5092C42.9757 15.5092 42.1238 14.7258 42.1238 13.5236C42.1238 12.2905 42.9841 11.5011 43.9106 11.5011ZM52.0415 4.68071V4.0083H48.7602V18.3266H52.0415V4.68071Z" fill="black" stroke="black" stroke-width="1.34483"/>
<path d="M59.37 14.3999L58.8157 14.0304L58.441 14.5813C58.032 15.1828 57.5353 15.5166 56.825 15.5166C56.4389 15.5166 56.1441 15.4286 55.9108 15.2815C55.848 15.242 55.7868 15.1963 55.7273 15.1438L60.8376 13.0257L61.4495 12.772L61.2051 12.1563L61.0087 11.662C60.6028 10.5794 59.3144 8.42615 56.6042 8.42615C53.9295 8.42615 51.8306 10.5452 51.8306 13.509C51.8306 16.3308 53.9125 18.5918 56.8176 18.5918C59.1525 18.5918 60.5034 17.1581 61.0568 16.3364L61.4343 15.7761L60.8721 15.4013L59.37 14.3999ZM57.0689 11.5217L55.3338 12.2403C55.674 11.7254 56.2399 11.4718 56.6704 11.4718C56.8186 11.4718 56.9516 11.4904 57.0689 11.5217Z" fill="black" stroke="black" stroke-width="1.34483"/>
</g>
<path d="M12.5593 17.9192C8.78206 17.9192 5.60864 14.8415 5.60864 11.0643C5.60864 7.28716 8.78206 4.20947 12.5593 4.20947C14.6503 4.20947 16.1376 5.02676 17.2568 6.10174L15.9388 7.4197C15.1362 6.66869 14.0466 6.07965 12.5593 6.07965C9.79814 6.07965 7.6408 8.30324 7.6408 11.0643C7.6408 13.8254 9.79814 16.049 12.5593 16.049C14.3484 16.049 15.3645 15.3275 16.0198 14.6796C16.5573 14.142 16.9033 13.3762 17.0358 12.3234H12.5593V10.4459H18.8618C18.9281 10.7771 18.965 11.1821 18.965 11.6166C18.965 13.0228 18.5821 14.7605 17.3451 15.9975C16.1376 17.2492 14.6061 17.9192 12.5593 17.9192ZM28.7137 13.5015C28.7137 16.0417 26.7625 17.9118 24.3622 17.9118C21.9619 17.9118 20.0108 16.0417 20.0108 13.5015C20.0108 10.9465 21.9619 9.09109 24.3622 9.09109C26.7625 9.09109 28.7137 10.9465 28.7137 13.5015ZM26.8067 13.5015C26.8067 11.9111 25.6728 10.8287 24.3622 10.8287C23.0516 10.8287 21.9177 11.9185 21.9177 13.5015C21.9177 15.0697 23.0516 16.1742 24.3622 16.1742C25.6728 16.1742 26.8067 15.0771 26.8067 13.5015ZM38.4619 13.5015C38.4619 16.0417 36.5107 17.9118 34.1105 17.9118C31.7175 17.9118 29.759 16.0417 29.759 13.5015C29.759 10.9465 31.7102 9.09109 34.1105 9.09109C36.5107 9.09109 38.4619 10.9465 38.4619 13.5015ZM36.5623 13.5015C36.5623 11.9111 35.4284 10.8287 34.1178 10.8287C32.8073 10.8287 31.6733 11.9185 31.6733 13.5015C31.6733 15.0697 32.8073 16.1742 34.1178 16.1742C35.4284 16.1816 36.5623 15.0771 36.5623 13.5015ZM47.975 9.35611V17.2786C47.975 20.5404 46.0533 21.873 43.7782 21.873C41.6355 21.873 40.3544 20.4373 39.8684 19.2666L41.5546 18.5671C41.8564 19.2886 42.5928 20.1354 43.7782 20.1354C45.236 20.1354 46.1343 19.2298 46.1343 17.5437V16.9105H46.068C45.6336 17.4479 44.7942 17.9118 43.7413 17.9118C41.5325 17.9118 39.515 15.9901 39.515 13.5162C39.515 11.0276 41.5399 9.08374 43.7413 9.08374C44.7942 9.08374 45.6336 9.55497 46.068 10.0703H46.1343V9.35611H47.975ZM46.2668 13.5236C46.2668 11.97 45.2286 10.8287 43.9107 10.8287C42.5706 10.8287 41.4515 11.9626 41.4515 13.5236C41.4515 15.0624 42.5706 16.1816 43.9107 16.1816C45.2286 16.1816 46.2668 15.0624 46.2668 13.5236ZM51.3691 4.68069V17.6541H49.4326V4.68069H51.3691ZM58.9971 14.9593L60.4991 15.9606C60.0131 16.6823 58.8425 17.9193 56.8176 17.9193C54.3069 17.9193 52.503 15.9828 52.503 13.5088C52.503 10.8876 54.329 9.09844 56.6042 9.09844C58.894 9.09844 60.0131 10.9171 60.3813 11.9038L60.5801 12.4044L54.6824 14.8489C55.1316 15.7325 55.8384 16.1889 56.825 16.1889C57.8116 16.1889 58.4964 15.6956 58.9971 14.9593ZM54.3658 13.3689L58.3124 11.7344C58.0915 11.1821 57.4435 10.7993 56.6704 10.7993C55.6838 10.7993 54.3143 11.6681 54.3658 13.3689Z" fill="white"/>
</svg>
