<svg width="34" height="34" viewBox="0 0 34 34" fill="none" xmlns="http://www.w3.org/2000/svg">
<rect width="34" height="34" fill="#D7D7D7"/>
<path d="M24.8171 13.5279C24.9436 13.6544 25.0068 13.7998 25.0068 13.9643C25.0068 14.1287 24.9436 14.2741 24.8171 14.4006L15.9756 23.2422C15.8491 23.3686 15.7036 23.4319 15.5392 23.4319C15.3747 23.4319 15.2293 23.3686 15.1028 23.2422L6.26127 14.4006C6.13478 14.2741 6.07153 14.1287 6.07153 13.9643C6.07153 13.7998 6.13478 13.6544 6.26127 13.5279L7.20993 12.5792C7.33641 12.4527 7.48188 12.3895 7.64631 12.3895C7.81074 12.3895 7.95621 12.4527 8.08269 12.5792L15.5392 20.0357L22.9956 12.5792C23.1221 12.4527 23.2676 12.3895 23.432 12.3895C23.5965 12.3895 23.7419 12.4527 23.8684 12.5792L24.8171 13.5279Z" fill="#4A4A4A"/>
</svg>
